<svg xmlns="http://www.w3.org/2000/svg" viewBox="0 0 240 206" role="img" aria-label="Tripod BV mark">
  <title>Tripod BV</title>

  <g transform="translate(120, 10)">
    <g stroke="#1A1A1A" stroke-width="1.25" stroke-linecap="round" fill="none">
      <line x1="0" y1="0" x2="0" y2="124.05"/>
      <line x1="-115" y1="186.07" x2="0" y2="124.05"/>
      <line x1="115" y1="186.07" x2="0" y2="124.05"/>
    </g>
    <g fill="#1A1A1A">
      <circle cx="0.00" cy="0.00" r="3.5"/>
      <circle cx="-6.05" cy="9.79" r="3.5"/>
      <circle cx="-12.11" cy="19.59" r="3.5"/>
      <circle cx="-18.16" cy="29.38" r="3.5"/>
      <circle cx="-24.21" cy="39.17" r="3.5"/>
      <circle cx="-30.26" cy="48.97" r="3.5"/>
      <circle cx="-36.32" cy="58.76" r="3.5"/>
      <circle cx="-42.37" cy="68.55" r="3.5"/>
      <circle cx="-48.42" cy="78.35" r="3.5"/>
      <circle cx="-54.47" cy="88.14" r="3.5"/>
      <circle cx="-60.53" cy="97.93" r="3.5"/>
      <circle cx="-66.58" cy="107.73" r="3.5"/>
      <circle cx="-72.63" cy="117.52" r="3.5"/>
      <circle cx="-78.68" cy="127.31" r="3.5"/>
      <circle cx="-84.74" cy="137.11" r="3.5"/>
      <circle cx="-90.79" cy="146.90" r="3.5"/>
      <circle cx="-96.84" cy="156.69" r="3.5"/>
      <circle cx="-102.89" cy="166.49" r="3.5"/>
      <circle cx="-108.95" cy="176.28" r="3.5"/>
      <circle cx="-115.00" cy="186.07" r="3.5"/>
      <circle cx="-103.50" cy="186.07" r="3.5"/>
      <circle cx="-92.00" cy="186.07" r="3.5"/>
      <circle cx="-80.50" cy="186.07" r="3.5"/>
      <circle cx="-69.00" cy="186.07" r="3.5"/>
      <circle cx="-57.50" cy="186.07" r="3.5"/>
      <circle cx="-46.00" cy="186.07" r="3.5"/>
      <circle cx="-34.50" cy="186.07" r="3.5"/>
      <circle cx="-23.00" cy="186.07" r="3.5"/>
      <circle cx="-11.50" cy="186.07" r="3.5"/>
      <circle cx="0.00" cy="186.07" r="3.5"/>
      <circle cx="11.50" cy="186.07" r="3.5"/>
      <circle cx="23.00" cy="186.07" r="3.5"/>
      <circle cx="34.50" cy="186.07" r="3.5"/>
      <circle cx="46.00" cy="186.07" r="3.5"/>
      <circle cx="57.50" cy="186.07" r="3.5"/>
      <circle cx="69.00" cy="186.07" r="3.5"/>
      <circle cx="80.50" cy="186.07" r="3.5"/>
      <circle cx="92.00" cy="186.07" r="3.5"/>
      <circle cx="103.50" cy="186.07" r="3.5"/>
      <circle cx="115.00" cy="186.07" r="3.5"/>
      <circle cx="108.95" cy="176.28" r="3.5"/>
      <circle cx="102.89" cy="166.49" r="3.5"/>
      <circle cx="96.84" cy="156.69" r="3.5"/>
      <circle cx="90.79" cy="146.90" r="3.5"/>
      <circle cx="84.74" cy="137.11" r="3.5"/>
      <circle cx="78.68" cy="127.31" r="3.5"/>
      <circle cx="72.63" cy="117.52" r="3.5"/>
      <circle cx="66.58" cy="107.73" r="3.5"/>
      <circle cx="60.53" cy="97.93" r="3.5"/>
      <circle cx="54.47" cy="88.14" r="3.5"/>
      <circle cx="48.42" cy="78.35" r="3.5"/>
      <circle cx="42.37" cy="68.55" r="3.5"/>
      <circle cx="36.32" cy="58.76" r="3.5"/>
      <circle cx="30.26" cy="48.97" r="3.5"/>
      <circle cx="24.21" cy="39.17" r="3.5"/>
      <circle cx="18.16" cy="29.38" r="3.5"/>
      <circle cx="12.11" cy="19.59" r="3.5"/>
      <circle cx="6.05" cy="9.79" r="3.5"/>
      <circle cx="0" cy="124.05" r="3.5"/>
    </g>
  </g>
</svg>
